<svg width="251" height="39" viewBox="0 0 251 39" fill="none" xmlns="http://www.w3.org/2000/svg">
<path d="M18.8787 28.5188V15.8661H5.42259V28.5188H0V0.401673H5.42259V11.046H18.8787V0.401673H24.3013V28.5188H18.8787Z" fill="black"/>
<path d="M42.6016 9.03766H47.4217V28.5188H42.6016V26.8318C41.1154 28.077 39.1472 28.9205 36.697 28.9205C31.3949 28.9205 27.1371 24.7029 27.1371 18.7582C27.1371 12.8536 31.3547 8.63598 36.6166 8.63598C38.866 8.63598 40.9145 9.359 42.6016 10.7247V9.03766ZM32.3589 18.7582C32.3589 21.9715 34.6886 24.1808 37.5003 24.1808C39.4685 24.1808 41.0752 23.2971 42.1999 21.8912V15.6653C40.9145 14.1791 39.2677 13.3757 37.42 13.3757C34.6484 13.3757 32.3589 15.6251 32.3589 18.7582Z" fill="black"/>
<path d="M63.7707 8.91715V13.6167C63.2485 13.5364 62.7264 13.4962 61.9632 13.4962C60.0351 13.4962 57.9866 14.3397 56.7414 16.2678V28.5188H51.5197V9.03766H56.5406V11.0059C57.7054 9.55983 59.8343 8.75649 62.2042 8.75649C62.8067 8.75649 63.2084 8.79665 63.7707 8.91715Z" fill="black"/>
<path d="M78.0411 8.91715V13.6167C77.5189 13.5364 76.9968 13.4962 76.2336 13.4962C74.3055 13.4962 72.257 14.3397 71.0118 16.2678V28.5188H65.7901V9.03766H70.811V11.0059C71.9758 9.55983 74.1047 8.75649 76.4746 8.75649C77.0771 8.75649 77.4788 8.79665 78.0411 8.91715Z" fill="black"/>
<path d="M86.7684 37.5565H81.386L86.4069 26.7515L77.4897 9.03766H83.073L89.0981 21.1682L94.601 9.03766H99.9835L86.7684 37.5565Z" fill="black"/>
<path d="M106.281 28.5188V25.3054L119.737 5.22176H107.486V0.401673H126.967V3.61506L113.591 23.6987H127.77V28.5188H106.281Z" fill="black"/>
<path d="M135.272 28.5188H130.05V0H135.272V10.4435C136.758 9.31883 138.686 8.63598 140.694 8.63598C143.345 8.63598 145.796 9.76067 147.362 11.6485C148.647 13.1749 149.33 15.2636 149.33 18.5975V28.5188H144.109V18.1155C144.109 16.1874 143.667 15.1833 142.944 14.4603C142.261 13.7774 141.217 13.3757 140.012 13.3757C137.802 13.3757 135.995 14.7816 135.272 15.7858V28.5188Z" fill="black"/>
<path d="M156.963 18.7983C156.963 21.7305 158.931 24.1808 161.984 24.1808C165.037 24.1808 167.005 21.7305 167.005 18.7983C167.005 15.8661 165.037 13.3757 161.984 13.3757C158.931 13.3757 156.963 15.8661 156.963 18.7983ZM151.741 18.7983C151.741 13.1749 156.12 8.63598 161.984 8.63598C167.848 8.63598 172.227 13.1749 172.227 18.7983C172.227 24.4218 167.848 28.9205 161.984 28.9205C156.12 28.9205 151.741 24.4218 151.741 18.7983Z" fill="black"/>
<path d="M188.324 9.03766H193.546V28.5188H188.725V26.7916C187.239 28.1172 185.271 28.9205 183.142 28.9205C180.491 28.9205 178.081 27.7155 176.595 25.8678C175.35 24.3414 174.667 22.2527 174.667 19.3607V9.03766H179.889V19.6418C179.889 21.4092 180.25 22.2929 180.853 22.9757C181.656 23.8594 182.781 24.1808 183.785 24.1808C185.994 24.1808 187.601 22.6946 188.324 21.7707V9.03766Z" fill="black"/>
</svg>
