<svg width="162" height="24" viewBox="0 0 162 24" fill="none" xmlns="http://www.w3.org/2000/svg">
<path d="M11.9184 21.5604C11.4286 21.6421 10.7211 21.1795 10.6667 20.7169C10.5578 20.0911 10.449 19.4924 10.3401 18.8938C9.95918 16.7985 9.55102 14.6489 9.55102 12.5264C9.55102 12.1183 9.57823 11.6829 9.60544 11.2747C9.60544 11.1659 9.79592 11.1659 9.7415 11.1387C9.22449 11.057 8.76191 11.0026 8.2449 10.921C6.93878 10.7305 5.63265 10.54 4.40816 10.54C4.13605 10.54 4.08163 10.5945 4.08163 10.8938C4.08163 11.0026 4.10884 11.1387 4.13605 11.2475C4.62585 13.0979 5.06122 14.8666 5.52381 16.6625C5.7415 17.5604 5.98639 18.4856 6.20408 19.3564C6.23129 19.5468 6.2585 19.6829 6.2585 19.8462C6.2585 20.3904 5.90476 20.7169 5.27891 20.7441C4.78912 20.7441 4.05442 20.2543 3.94558 19.8462C3.83673 19.3836 3.70068 18.8394 3.34694 17.2883C1.87755 11.057 1.68708 11.6013 2.09524 11.6013C2.14966 11.6013 2.12245 11.6013 1.95918 11.6557C1.65986 11.7645 1.41497 11.819 1.17007 11.819C0.489796 11.819 0 11.4652 0 10.9482C0 10.6761 0.244898 10.4584 0.734694 10.1047C1.46939 9.56045 1.71429 9.20671 1.71429 8.66249C1.71429 8.30875 1.60544 8.00943 1.41497 7.81895C0.816327 7.16589 0.571429 6.56725 0.571429 5.61487C0.571429 5.50603 0.571429 5.39718 0.571429 5.23392C0.598639 5.09786 0.59864 4.96181 0.59864 4.82576C0.59864 4.71691 0.59864 4.60807 0.59864 4.47201C0.571429 4.30875 0.571429 4.19991 0.571429 4.09106C0.571429 2.97542 0.870748 2.45841 1.7415 2.4312C2.53061 2.40399 2.80272 2.92099 2.80272 3.87337C2.80272 3.98222 2.80272 4.06385 2.80272 4.22712C2.77551 4.36317 2.77551 4.49922 2.77551 4.60807C2.7483 4.88018 2.72109 5.04344 2.72109 5.1795C2.72109 5.80535 2.91156 6.34956 3.31973 6.78494C3.56463 7.05705 3.64626 7.35637 3.78231 7.95501C3.91837 8.6897 4.08163 8.71691 3.86395 8.71691C4.40816 8.77133 4.92517 8.79854 5.46939 8.82575C6.36735 8.85297 7.26531 8.90739 8.16327 9.01623C8.38095 9.04344 8.51701 9.07065 8.59864 9.07065C8.92517 9.07065 9.06123 8.9346 9.27891 8.33596C9.60544 7.30194 10.6122 6.05024 11.3742 6.05024C11.9728 6.05024 12.2721 6.51283 12.2721 7.1931V7.24752C11.9728 8.77133 11.8367 10.3768 11.8367 11.9822C11.8367 13.6693 12.1088 15.3019 12.381 16.9618C12.5442 18.0775 12.7347 19.1931 12.8435 20.336C12.8435 20.9346 12.4898 21.4788 11.9184 21.5604Z" fill="black"/>
<path d="M16.6441 23.4414C15.6917 23.7136 15.3379 21.9993 15.3379 20.5027C15.3379 18.87 15.61 17.1285 15.8549 15.4687C15.9638 14.87 16.0454 14.2986 16.1271 13.6999C16.1271 13.6455 16.1271 13.5911 16.1543 13.5095C16.1543 13.455 16.1543 13.455 16.1543 13.455C16.1543 13.1557 16.0182 13.1013 15.1747 13.0469C14.44 12.9925 13.2971 12.9108 13.2971 11.9584C13.2971 11.4414 13.9502 10.9789 14.6577 10.9789C15.1202 10.9789 15.5828 11.0605 16.0454 11.1421C16.2903 11.1693 16.5624 11.2238 16.7801 11.251C16.889 11.251 16.9162 11.1965 16.9162 11.0877C16.9162 10.87 16.889 10.6523 16.7801 10.217C16.7257 9.89042 16.6441 9.50947 16.6441 9.15573C16.6441 8.72035 16.8073 8.52988 17.3243 8.28498C17.5148 8.17614 17.5692 8.14893 17.6781 7.98566C18.576 6.81559 19.1202 5.26457 19.6645 3.74076C19.9366 2.97886 20.1815 2.24416 20.508 1.48226C20.7801 0.883619 21.2427 0.529877 21.8141 0.529877C22.4128 0.529877 23.0658 1.07409 24.5352 2.67954C24.8617 3.03328 25.2155 3.41423 25.4604 3.65913C27.1747 5.3462 27.5284 7.63192 27.8822 9.78158C27.9638 10.353 28.0726 10.9516 28.1815 11.4687C28.2903 12.0401 28.3175 12.3938 28.7529 12.4482H28.6985C29.1611 12.4482 29.4332 13.0197 29.4332 13.455C29.4332 13.6183 29.3788 13.7816 29.2427 14.1353C29.1611 14.3802 29.1339 14.4891 29.1339 14.5979C29.1339 15.1421 29.3243 15.6591 29.5148 16.1489C29.9502 17.3734 30.3856 18.5707 30.7121 19.7408C31.0386 20.3122 30.3311 21.1829 29.7053 21.1829C29.1339 21.1829 28.3447 20.8836 28.2903 20.5299C28.2087 19.7952 27.8822 19.2238 26.9842 18.1897C26.4672 17.5911 25.8958 16.938 25.8958 16.3122C25.8958 16.0673 26.0046 15.8224 26.2767 15.2782C26.5216 14.8428 26.576 14.6523 26.576 14.4891C26.576 14.0809 26.3039 13.836 25.7869 13.7816C24.6441 13.6455 23.5284 13.5367 22.4128 13.455C22.0046 13.4278 21.6509 13.3734 21.2699 13.3462C21.1066 13.3734 20.8073 13.4006 20.4264 13.4006C18.957 13.4278 18.3856 13.5095 18.3583 13.7272C18.2223 14.3258 18.0862 15.0061 17.9502 15.6591C17.542 17.5095 17.1339 19.387 17.1339 21.1557C17.1339 21.319 17.1339 21.4823 17.1611 21.6455C17.1611 21.8088 17.1611 21.9721 17.1611 22.1081C17.1611 22.1625 17.1611 22.2442 17.1883 22.353C17.2427 22.9789 17.1611 23.2782 16.6441 23.4414ZM25.9502 11.8496C25.923 11.8496 25.9774 11.8224 26.059 11.768C26.1134 11.7408 26.1134 11.7408 26.1679 11.7136L25.9502 12.0129C25.923 11.8224 25.8958 11.6591 25.8141 11.3326C25.7053 10.8428 25.5692 10.353 25.542 9.89042C25.2971 7.11491 24.1543 4.91083 22.1407 3.3326C21.923 3.14212 21.923 3.16933 21.9774 3.16933C22.1134 3.16933 22.1679 3.06049 22.059 3.3326C21.1066 5.99927 20.1815 8.63872 19.1747 11.3598C19.1475 11.4414 19.1202 11.4959 19.1202 11.5503C19.1202 11.6591 18.8754 11.5231 19.1747 11.5231C20.7257 11.5775 22.2223 11.6591 23.7189 11.7408C24.4536 11.768 25.2155 11.8224 25.9502 11.8496Z" fill="black"/>
<path d="M44.0641 24C43.4655 24 42.7036 22.7755 41.6151 21.1701C41.0165 20.2993 40.3907 19.3742 40.0097 18.9116C38.4859 17.0068 37.6151 14.7755 37.2342 11.7007C37.0437 10.2857 36.8805 9.76872 36.7988 9.63267C36.6356 9.7143 36.4179 9.79593 36.2546 9.87757C34.2682 10.7483 33.5335 11.2109 33.5335 11.6735C33.7784 13.1701 34.0505 14.6123 34.3498 16.0816C34.4587 16.5987 34.5403 17.1157 34.6492 17.5782C34.6764 17.8231 34.758 18.0136 34.8941 18.3129C35.0573 18.6123 35.139 18.7483 35.139 18.9116C35.139 19.483 34.4043 20.2449 33.7784 20.2449C32.9077 20.2449 32.5267 16.7075 31.9281 12.898C31.8464 12.381 31.7648 11.9184 31.7104 11.6463C31.7104 11.5102 31.6832 11.4558 31.5471 11.2109C31.3294 10.7755 31.2478 10.5306 31.2478 10.2585C31.4111 9.57825 31.6288 8.81634 31.8192 8.10886C32.2546 6.50342 32.6628 4.92518 32.8805 3.29253C33.0981 1.41498 33.8873 1.52588e-05 34.8941 1.52588e-05C35.1934 1.52588e-05 35.6015 0.16328 35.8464 0.353757C36.3362 0.734709 36.7172 1.03403 37.5879 1.65988C38.7036 2.53063 39.9009 3.40138 40.9349 4.24491C41.0709 4.38097 41.207 4.54423 41.3158 4.7075C41.3703 4.76192 41.3703 4.78913 41.3703 4.78913L41.4519 4.9524C41.4519 6.36736 40.2274 8.00001 38.8669 8.35376C39.1934 8.27212 38.9485 8.16328 38.9485 8.4626C39.0301 8.87076 39.0845 9.25172 39.1662 9.65988C39.4111 11.1293 39.656 12.6259 39.9825 14.068C40.3634 15.9184 41.5607 17.3333 42.622 18.7483L45.207 22.2313C45.3975 22.5034 45.4791 22.6667 45.4791 22.8572C45.4791 23.3197 44.5811 24 44.0641 24ZM33.3975 9.2245C34.2138 9.2245 35.7376 8.40818 36.7988 7.34695C37.3975 6.74832 37.6151 6.58505 38.2954 6.58505C38.4587 6.58505 38.9213 6.28573 38.9213 6.17689C38.9213 5.22451 35.0845 2.77553 34.9757 2.77553C35.2478 2.77553 35.139 2.66668 35.0029 3.51022C34.7308 4.87076 34.3226 6.09525 33.86 7.42859C33.6424 8.05444 33.4247 8.65308 33.1798 9.41498L32.9077 9.06124C33.0165 9.11566 33.0709 9.11566 33.1526 9.14287C33.3158 9.19729 33.3703 9.2245 33.3975 9.2245Z" fill="black"/>
<path d="M60.9533 16.4746C61.2254 16.8012 61.4159 17.1821 61.4159 17.4542C61.4159 17.8896 60.9805 18.2433 60.5179 18.2433C59.9465 18.2433 58.9125 17.3182 57.1982 15.7943C55.8648 14.5971 55.2934 14.1345 55.0485 13.9984C54.4499 13.6175 53.9601 13.3998 52.7628 12.91C52.5179 12.8012 52.2458 12.6923 52.0009 12.5835C52.0009 12.6107 52.0281 12.6107 52.0281 12.6379L52.0009 12.5563C52.273 13.2637 53.4431 16.91 53.4431 17.6447C53.4431 18.7331 53.0077 19.4406 52.1097 19.495C51.4567 19.5495 50.722 18.8964 50.8036 18.2977C50.8308 18.1345 50.9941 17.9168 51.1574 17.7535C51.0757 17.4814 50.9669 17.1005 50.7492 16.1753C50.0689 13.5631 49.4159 11.4678 49.3886 11.4678C48.6812 11.0597 48.4635 10.6515 48.4635 9.78074C48.4635 9.6719 47.7288 7.57666 47.756 7.57666C47.9737 7.57666 47.9737 7.49503 47.8104 7.6855C47.5383 8.01204 47.239 8.1753 46.858 8.1753C46.4227 8.1753 45.9329 7.57666 45.9329 7.1685C45.9329 6.70591 46.9397 5.50863 47.6199 5.1821C48.8716 4.55625 50.7492 4.50183 52.0281 4.50183C54.6676 4.50183 56.6267 5.04605 56.6267 5.97122C56.6267 6.32496 55.9465 7.19571 54.0961 9.23652C53.3886 10.0529 53.0077 10.5154 52.8172 10.7331C53.0349 10.8148 53.2254 10.8692 53.3342 10.9236C56.1097 12.3114 59.4839 14.7603 60.9533 16.4746ZM50.8308 9.39979C51.0757 9.39979 51.4567 9.04605 53.4431 6.62428C53.4159 6.56986 53.2526 6.54265 52.8716 6.54265C52.7084 6.54265 52.5179 6.54265 52.3818 6.56986C52.2458 6.56986 52.1369 6.56986 52.0281 6.56986C51.756 6.59707 51.375 6.59707 51.0213 6.62428C49.7696 6.65149 49.4159 6.70591 49.4159 6.81476C49.4159 7.00523 49.6063 7.44061 50.0689 8.39299C50.1778 8.58346 50.3138 8.82836 50.3682 8.9372C50.5043 9.26374 50.6676 9.39979 50.8308 9.39979Z" fill="black"/>
<path d="M68.7807 22.5272C68.2909 22.5816 68.2093 22.3095 68.0732 21.9013C68.0188 21.7925 68.0188 21.7653 68.0188 21.7653L68.2637 21.4116C68.3181 21.3843 68.427 21.3571 68.5086 21.3571C68.563 21.3571 68.563 21.3571 68.5902 21.3299L68.2909 21.6292C67.8827 18.9354 67.4746 16.2415 67.0392 13.5748C67.0392 13.4388 66.9032 13.3299 66.8759 13.3299H66.8487C64.9168 12.8945 61.8691 12.0782 61.8691 9.24829C61.8691 8.67686 62.0868 8.07822 62.2773 7.58842C62.5222 6.93536 62.6038 6.63604 62.6038 6.30951C62.6038 5.90135 62.495 5.46597 62.3045 5.05781C62.2229 4.97618 62.2229 4.89455 62.2229 4.73128C62.2229 3.91495 62.7943 3.23468 63.5834 3.23468C64.5358 3.23468 65.0528 4.43196 65.0528 5.73808C65.0528 6.30951 64.8079 6.93536 64.5902 7.47958C64.2909 8.18706 64.2093 8.5408 64.2093 8.86733C64.2093 10.1735 65.4066 11.2075 66.9304 11.2075C68.4814 11.2075 69.8419 10.0646 70.3589 8.29591C70.9576 6.22788 71.7739 4.18706 72.6174 2.06461C72.7263 1.76529 73.3793 1.46597 73.8147 1.46597C74.3317 1.46597 74.7671 1.73808 74.7671 2.17346C74.7671 2.33672 74.6855 2.5272 74.495 2.82652C74.4134 2.96257 74.4134 2.98978 74.4134 3.01699C74.4134 3.07142 74.1685 2.79931 74.3045 2.82652C74.6583 2.88094 75.6378 3.0442 75.6378 4.0238C75.6378 4.2687 75.5562 4.5408 75.4202 4.73128C75.1753 5.16665 74.8759 5.68366 74.6038 6.17346C73.7875 7.58842 72.9984 8.94897 72.1004 10.3639C71.8555 10.7449 71.3385 11.2347 70.9304 11.6428C69.9508 12.5952 69.6515 13.0034 69.6515 13.4116C69.6515 13.4932 69.6515 13.5204 69.6242 13.4932L69.6787 13.5748C69.8964 15.0442 70.114 16.4864 70.3589 17.9558C70.5222 18.9626 70.6855 19.9694 70.8487 20.949C70.8487 20.9762 70.8487 21.0306 70.8487 21.085C70.8759 21.1667 70.8759 21.2211 70.8759 21.3027C70.8759 22.5272 69.461 22.4728 68.7807 22.5272Z" fill="black"/>
<path d="M96.6538 21.8776C96.164 21.8776 95.8647 21.6327 95.8647 21.1973C95.8647 20.4082 96.3545 19.4286 96.7898 18.5851C96.9803 18.2041 97.0347 18.0953 97.1436 17.8504C97.4157 17.279 97.6878 16.6259 97.9599 16C98.749 14.1497 99.5381 12.3538 100.572 10.5851C101.252 9.41501 102.205 8.27216 103.13 7.18372C103.81 6.36739 104.11 6.01365 104.491 5.52386C104.463 5.60549 104.463 5.55107 104.545 5.33338C104.572 5.25175 104.599 5.22454 104.654 5.14291L104.953 5.52386C104.871 5.49665 104.817 5.49665 104.735 5.49665C104.654 5.46944 104.572 5.44222 104.518 5.44222C103.457 5.79597 102.286 5.95923 101.116 5.95923C99.1572 5.95923 97.2524 5.52386 95.3477 5.06127C95.13 5.00685 94.9667 4.95243 94.613 4.84359C93.9599 4.65311 93.3341 4.48984 92.7354 4.48984C92.3001 4.48984 91.9463 4.57148 91.6198 4.73474C90.9667 5.33338 90.1504 4.57148 90.1504 3.91842C90.1504 2.99325 91.0483 2.28576 92.2456 2.28576C93.8239 2.28576 95.3477 2.6395 96.8443 3.02046C98.3409 3.3742 99.8375 3.72794 101.307 3.72794C102.831 3.72794 104.246 3.21093 105.742 2.66671C106.232 2.47624 106.45 2.42182 106.749 2.28576C106.803 2.28576 106.831 2.28576 106.912 2.25855C107.13 2.17692 107.375 2.1225 107.538 2.1225C107.946 2.1225 108.164 2.34018 108.327 2.74835C108.409 2.99325 108.436 2.91161 108.246 2.91161C108.844 2.96603 109.28 3.18372 109.28 3.56467C109.28 3.72794 109.198 3.91842 108.953 4.29937C108.926 4.35379 108.926 4.35379 108.871 4.43542C108.273 5.60549 107.184 6.34018 106.178 7.02046C105.715 7.34699 105.552 7.48304 105.252 7.70073C103.62 8.95243 102.341 10.8028 101.334 13.4422C100.599 15.3742 99.7014 17.279 98.8307 19.2654C98.7762 19.347 98.749 19.4558 98.749 19.5375C98.749 19.5647 98.5858 19.5103 98.8579 19.5103C99.5926 19.5103 100.327 19.483 101.035 19.483C101.769 19.4558 102.477 19.4558 103.212 19.4558C103.348 19.4558 103.538 19.483 103.729 19.483C103.974 19.5103 104.246 19.5375 104.463 19.5375C105.688 19.5375 106.749 19.483 107.81 19.4286C108.871 19.347 109.96 19.2926 111.239 19.2926C111.783 19.2926 112.382 19.4014 112.382 19.8096C112.382 20.8164 111.239 21.6327 109.905 21.6327C109.361 21.6327 108.844 21.6327 108.3 21.6055C107.783 21.6055 107.239 21.6055 106.722 21.6055C105.252 21.6055 103.756 21.6327 102.286 21.6327C100.79 21.6599 99.3205 21.6871 97.8239 21.6871C97.6062 21.6871 97.3885 21.7415 97.1708 21.796C96.9531 21.8504 96.7626 21.8776 96.6538 21.8776Z" fill="black"/>
<path d="M125.488 22.3752C124.672 21.9942 124.563 21.4228 124.808 19.8173C124.944 18.9194 124.971 18.5112 124.89 18.1847C124.781 17.6949 124.726 17.2595 124.726 16.7969C124.726 15.899 124.917 15.001 125.352 13.9126C125.352 13.8309 125.379 13.6133 125.379 13.6133L125.434 13.6405C125.162 13.586 124.944 13.5316 124.672 13.4772C123.284 13.2323 121.869 12.9602 120.509 12.9602C119.801 12.9602 119.067 13.0418 118.332 13.1235C118.033 13.1507 117.924 13.3956 117.924 14.0486C117.924 14.9194 117.869 15.8173 117.815 16.6881C117.788 17.5588 117.733 18.4024 117.733 19.2731C117.733 20.7697 116.672 21.9398 115.475 21.7765C115.067 21.7221 114.794 21.4228 114.794 21.0146C114.849 20.5792 114.903 20.1167 114.958 19.6813C115.121 18.5112 115.284 17.3956 115.284 16.2255C115.284 14.3752 114.93 14.5112 115.448 14.5112C115.774 14.5112 115.502 14.5384 115.366 14.6201C115.203 14.7017 115.039 14.7561 114.93 14.8105L114.386 14.6745C114.359 14.6201 114.359 14.5928 114.332 14.5656C114.223 14.3479 114.196 14.2391 114.196 14.1303C114.196 13.9398 114.413 13.6132 114.958 12.9602C115.121 12.7425 115.148 12.6881 115.257 12.552C115.284 12.5248 115.366 12.416 115.475 12.2527C115.747 11.9262 115.828 11.7901 115.828 11.5996C116.073 9.01461 116.781 6.81053 118.06 4.79692C118.332 4.38876 118.55 3.84454 118.767 3.32753C119.039 2.67447 119.148 2.40237 119.366 2.04862C119.529 1.69488 120.427 1.44998 120.835 1.64046C121.162 1.77651 121.243 1.93978 121.216 2.32073C121.216 2.34794 121.216 2.37515 121.216 2.42958C120.999 2.97379 120.726 3.62686 120.454 4.19828C119.992 5.28672 119.529 6.29352 119.148 7.43638C118.876 8.25271 118.767 9.17788 118.631 10.0758C118.55 10.6201 118.522 10.865 118.468 11.1643C118.468 11.1371 118.468 11.1371 118.386 11.1371L118.196 11.1643C118.958 10.7833 119.774 10.5928 120.672 10.5928C121.162 10.5928 121.706 10.6473 122.169 10.7561C123.203 10.9738 124.291 11.0282 125.379 11.0554C125.57 11.0554 125.815 11.0826 126.033 11.0826C126.332 11.0826 126.577 10.5656 126.876 8.82413C127.094 7.38196 127.393 5.66767 128.89 5.66767C129.679 5.66767 129.896 5.9942 129.896 6.91937V6.97379C129.706 7.79012 129.516 8.66087 129.298 9.4772C129.162 10.0486 129.026 10.5656 128.89 11.1643C128.89 11.2459 128.917 11.2731 129.162 11.4908C129.652 11.8445 129.842 12.0894 129.842 12.3888C129.706 14.0758 129.107 14.8922 128.808 15.3275C128.699 15.4364 128.699 15.4636 128.672 15.518C128.563 16.1711 128.454 16.8513 128.345 17.5316C128.182 18.6201 128.019 19.7085 127.801 20.8513C127.665 21.586 126.114 22.6745 125.488 22.3752Z" fill="black"/>
<path d="M139.656 20.7384C137.398 20.9016 135.057 20.0581 132.908 18.2894C132.173 17.718 131.955 17.1737 131.874 15.8948C131.874 15.6771 131.847 15.4323 131.819 15.269C131.738 14.7792 131.71 14.2894 131.71 13.718C131.71 12.4391 131.928 11.2146 132.391 9.96286C132.663 9.20096 133.207 8.43905 133.67 7.75878C134.268 6.91524 134.785 6.18055 134.921 5.25538C135.221 3.45946 137.316 3.24178 138.622 3.24178C141.017 3.24178 143.139 5.17375 144.636 6.72477C145.289 7.40504 145.534 8.13974 145.534 9.33701C145.534 10.4799 145.316 11.2146 144.472 11.2146C144.064 11.2146 143.357 10.6159 143.384 10.2622C143.438 10.0173 143.493 9.71797 143.493 9.39144C143.493 7.89484 142.513 7.18735 141.37 6.34382C141.098 6.15334 140.799 5.93565 140.608 5.77239C140.01 5.3098 139.466 5.09212 138.758 5.09212C137.778 5.09212 137.18 5.33701 136.826 5.96286C135.357 8.52069 133.996 10.888 133.996 13.8268C133.996 17.337 135.438 18.5343 139.656 18.5343C143.003 18.5343 144.418 15.7044 144.418 13.1737C144.418 12.9561 144.391 12.7656 144.391 12.5479C144.364 12.303 144.336 12.0581 144.336 11.8132C144.336 11.1601 144.772 10.6159 145.37 10.6159C146.404 10.6159 146.758 11.2418 146.758 12.4935C146.758 16.1669 145.506 18.6976 143.085 19.7588C141.778 20.3574 140.663 20.6567 139.656 20.7384Z" fill="black"/>
<path d="M153.252 21.5646C153.035 21.5646 152.844 21.5374 152.545 21.4558C152.409 21.4286 152.273 21.3742 152.164 21.3742C149.851 21.2381 148.817 19.7415 148.735 16.6123C148.735 16.4762 148.708 16.3129 148.681 16.068C148.626 15.7415 148.599 15.5783 148.599 15.415C148.599 15.2245 148.626 15.0612 148.681 14.6803C148.708 14.4626 148.735 14.2449 148.735 14C148.735 13.7007 148.708 13.3742 148.654 12.9932C148.626 12.5851 148.572 12.1225 148.572 11.7143C148.572 11.4966 148.599 11.3061 148.681 10.8436C148.708 10.5714 148.762 10.3538 148.762 10.0817C148.762 10.0272 148.817 9.83676 148.926 9.59186C149.252 8.58505 149.416 7.98641 149.416 7.65988C149.416 7.52383 149.388 7.41499 149.334 7.1973C149.28 6.92519 149.252 6.78914 149.252 6.65308C149.252 6.29934 149.361 5.86397 149.47 5.48301C149.524 5.29254 149.524 5.23811 149.552 5.12927C149.579 5.04764 149.606 4.91159 149.633 4.63948C149.851 3.1973 150.177 2.43539 151.157 2.43539C151.783 2.43539 152.354 2.9524 152.354 3.55104C152.354 3.76873 152.273 3.9592 152.082 4.12247C152.082 4.14968 152.055 4.2041 152.028 4.25852C152.028 4.31295 152.001 4.36737 151.973 4.42179C152.001 4.74832 151.946 5.07485 151.783 5.80954C151.674 6.27213 151.592 6.7075 151.592 7.11567C151.592 7.25172 151.592 7.36056 151.62 7.49662C151.647 7.71431 151.647 7.82315 151.647 7.9592C151.647 8.6939 151.429 9.40138 151.211 10.1089C151.021 10.8163 150.803 11.4966 150.803 12.3129C150.803 12.4762 150.831 12.6395 150.885 12.9388C150.939 13.2925 150.967 13.4286 150.967 13.6191C150.967 13.9728 150.939 14.3266 150.885 14.6531C150.858 15.0068 150.831 15.3334 150.831 15.6599C150.831 15.6871 150.831 15.7143 150.858 15.8232C150.912 15.9864 150.939 16.068 150.939 16.1497C150.939 17.7007 151.81 18.8708 153.035 18.9524C153.143 18.9524 153.225 18.9796 153.388 18.9796C153.633 18.9796 153.905 19.0068 154.15 19.034C154.232 19.034 154.286 19.0612 154.368 19.0612C154.749 19.1157 155.184 19.1701 155.511 19.1701C156.028 19.1701 156.218 19.1701 156.436 19.0885L157.089 18.898C157.96 18.898 158.504 18.4082 158.504 17.6191C158.504 16.8844 158.504 16.8572 158.967 16.3402C159.266 16.0136 159.484 14.8436 159.484 13.5102C159.484 13.4286 159.484 13.3197 159.484 13.2109C159.456 12.5578 159.484 12.1769 159.592 11.9048C159.62 11.415 159.62 10.8708 159.62 10.3538C159.62 10.2177 159.62 10.1361 159.62 10.0817C159.565 9.80954 159.538 9.72791 159.538 9.61907C159.538 9.51022 159.538 9.37417 159.565 9.15648C159.592 8.58505 159.592 8.28573 159.538 8.12247C159.402 7.74152 159.293 7.38778 159.293 7.00682C159.293 6.76193 159.348 6.54424 159.456 6.24492V6.13608C159.456 5.89118 159.484 5.7007 159.565 5.26533C159.592 4.99322 159.647 4.74832 159.647 4.47621C159.647 3.17009 159.701 2.57145 160.654 2.57145C161.524 2.57145 161.824 3.17009 161.824 4.2041C161.824 4.74832 161.742 5.31975 161.688 5.86397C161.606 6.40818 161.552 6.92519 161.552 7.46941C161.552 7.60546 161.579 7.74152 161.688 8.01363C161.797 8.39458 161.851 8.58505 161.851 8.80274C161.851 8.96601 161.824 9.10206 161.769 9.40138C161.715 9.61907 161.688 9.72791 161.688 9.86397C161.688 9.9456 161.688 10.0272 161.742 10.1905C161.797 10.4354 161.824 10.5442 161.824 10.6803C161.824 10.8436 161.797 10.9796 161.742 11.3061C161.715 11.5783 161.688 11.7415 161.688 11.9048C161.688 12.0136 161.688 12.1497 161.688 12.2857C161.688 12.9932 161.715 14 161.524 14.5987C161.524 14.5987 161.524 14.5987 161.524 14.6531C161.497 14.7347 161.497 14.7619 161.497 14.8163C161.497 14.898 161.497 14.9524 161.497 15.034C161.524 15.1429 161.524 15.2245 161.524 15.3061C161.552 15.7687 161.388 16.2857 161.252 16.6939C161.062 17.2381 161.007 17.483 161.007 17.7823C161.007 19.0885 159.075 20.966 157.633 21.0749C157.198 21.2925 156.599 21.4014 155.946 21.4014C155.865 21.4014 155.728 21.4014 155.538 21.4014C154.939 21.3742 154.15 21.347 154.15 21.347L154.014 21.4014C153.797 21.5102 153.497 21.5646 153.252 21.5646Z" fill="black"/>
</svg>
