<svg width="165" height="23" viewBox="0 0 165 23" fill="none" xmlns="http://www.w3.org/2000/svg">
<path d="M14.15 22V13.568H5.616V22H0.21V0.75H5.616V9.012H14.15V0.75H19.556V22H14.15ZM38.8754 22H33.8094L32.7554 18.974H27.1794L26.2614 22H21.0934L26.6694 5.714H33.4014L38.8754 22ZM29.9674 9.182L27.9954 15.54H31.9394L29.9674 9.182ZM45.3168 22H40.2168V5.714H47.9688C52.5588 5.714 54.9388 7.788 54.9388 11.052C54.9388 13.092 53.9528 14.826 51.8108 15.676L55.5848 22H50.1108L47.2548 16.696L45.3168 16.798V22ZM47.0508 13.67C48.7848 13.636 49.7708 12.854 49.7708 11.358C49.7708 9.998 48.9208 9.216 46.9828 9.216H45.2828V13.704L47.0508 13.67ZM62.1854 22H57.0854V5.714H64.8374C69.4274 5.714 71.8074 7.788 71.8074 11.052C71.8074 13.092 70.8214 14.826 68.6794 15.676L72.4534 22H66.9794L64.1234 16.696L62.1854 16.798V22ZM63.9194 13.67C65.6534 13.636 66.6394 12.854 66.6394 11.358C66.6394 9.998 65.7894 9.216 63.8514 9.216H62.1514V13.704L63.9194 13.67ZM82.473 16.016V22H77.373V15.982L71.695 5.714H77.101L79.923 11.766L82.677 5.714H88.117L82.473 16.016ZM92.8608 22V18.43L103.469 5.272H93.0648V0.75H110.269V4.354L99.6948 17.444H110.235V22H92.8608ZM122.885 22V15.71H117.343V22H112.141V5.714H117.343V11.868H122.885V5.714H128.087V22H122.885ZM147.636 13.806C147.636 19.11 143.658 22.476 138.796 22.476C133.934 22.476 130.058 19.586 130.058 13.908C130.058 8.57 134.07 5.272 138.864 5.272C143.76 5.272 147.636 8.094 147.636 13.806ZM142.502 13.908C142.502 11.086 141.278 9.182 138.796 9.182C136.348 9.182 135.158 11.086 135.158 13.806C135.158 16.628 136.416 18.566 138.898 18.566C141.346 18.566 142.502 16.628 142.502 13.908ZM164.727 15.166C164.727 20.232 161.463 22.476 157.009 22.476C152.691 22.476 149.291 20.572 149.291 15.574V5.714H154.493V14.996C154.493 17.104 155.343 18.158 157.077 18.158C158.743 18.158 159.559 17.376 159.559 15.098V5.714H164.727V15.166Z" fill="black"/>
</svg>
