<svg width="235" height="36" viewBox="0 0 235 36" fill="none" xmlns="http://www.w3.org/2000/svg">
<path d="M2.18139 1.85144C1.28898 2.46858 0.991515 6.06858 1.18983 16.0457L1.4873 29.3143H4.46198C7.13919 29.3143 7.43666 28.9029 7.73413 25.7143C8.22991 20.88 9.6181 19.3372 13.2869 19.7486C16.0632 20.0572 16.3607 20.4686 17.0548 24.5829C17.9472 30.1372 18.0464 30.24 22.5084 30.1372C28.1603 29.9314 29.251 27.7714 29.5485 15.6343C29.8459 6.27429 29.6476 5.04001 27.7637 3.08572C26.2763 1.54287 24.6898 1.02858 22.0126 1.23429C18.5421 1.54286 18.2447 1.85144 17.2531 6.17144C16.1624 11.0057 14.6751 12.0343 10.4113 10.9029C8.42822 10.3886 8.0316 9.46286 7.73413 5.86286C7.53582 2.46858 7.04004 1.44001 5.45354 1.23429C4.36282 1.13144 2.87548 1.44001 2.18139 1.85144Z" fill="black"/>
<path d="M133.167 2.67429C132.373 4.83429 135.546 7.40572 137.926 6.68572C140.108 5.96572 142.785 7.09715 142.785 8.74287C142.785 9.46287 140.306 12.8572 137.331 16.3543C131.283 23.4514 130.192 27.7714 133.96 29.9314C137.232 31.68 153.395 30.1372 154.188 27.9772C155.08 25.6114 152.106 23.6572 147.544 23.6572C145.462 23.6572 143.776 23.2457 143.776 22.6286C143.776 22.1143 146.652 18.72 150.222 15.12C156.667 8.43429 157.559 6.68572 155.675 2.98287C154.684 1.23429 153.494 1.02858 144.173 1.02858C135.447 1.02858 133.663 1.33715 133.167 2.67429Z" fill="black"/>
<path d="M158.352 1.64572C157.956 2.05715 157.658 8.02286 157.658 14.9143C157.658 25.2 157.956 27.7714 159.245 28.9029C160.335 29.8286 161.228 29.9314 162.418 29.1086C163.707 28.2857 164.103 26.4343 164.103 20.9829C164.103 14.0914 164.203 13.8857 166.582 13.8857C168.962 13.8857 169.061 14.2971 169.954 21.3943C170.648 28.1829 171.044 29.0057 173.325 29.9314C176.3 31.0629 181.059 30.24 181.753 28.4914C181.951 27.7714 182.051 24.1714 182.051 20.3657C181.951 14.2971 181.654 13.0629 179.373 10.6971C177.192 8.43429 175.903 8.02286 170.747 8.12572H164.698L164.401 4.83429C164.203 2.16001 163.608 1.44001 161.624 1.23429C160.236 1.02858 158.749 1.23429 158.352 1.64572Z" fill="black"/>
<path d="M66.1371 7.61143C64.7489 8.74286 63.7574 8.74286 61.4768 7.92001C57.2131 6.27429 55.5274 8.43429 54.4367 17.0743C53.6434 23.8629 53.6434 24.2743 56.1224 26.5371C59.1962 29.3143 64.154 29.6229 64.7489 26.9486C65.0464 26.0229 65.5422 23.3486 65.9388 21.0857C66.7321 16.1486 68.9135 12.3429 70.9958 12.3429C72.0865 12.3429 72.384 11.52 72.1856 9.46286C71.8882 6.27429 69.0126 5.34858 66.1371 7.61143Z" fill="black"/>
<path d="M84.9768 7.61143C83.5886 8.74286 82.597 8.74286 80.3165 7.92C76.1519 6.27429 74.7637 8.12571 73.673 16.8686C72.6814 23.76 72.7806 24.1714 75.0612 26.5371C76.7468 28.2857 78.2342 28.8 80.5148 28.5943C83.4895 28.2857 83.6878 27.9771 84.7785 22.6286C86.0675 15.7371 87.5549 12.7543 90.0338 12.1371C92.0169 11.52 93.2067 13.9886 95.7848 23.9657C96.9747 28.4914 96.8755 29.1086 95.0907 30.6514C91.0253 34.2514 93.2067 35.5886 102.131 35.0743C107.684 34.6629 109.468 32.8114 111.947 24.5829C113.137 20.3657 114.624 15.9429 115.12 14.6057C116.409 11.3143 113.038 8.02286 108.774 8.43429C106.196 8.64 105.304 9.46286 103.816 12.5486C102.924 14.7086 101.536 16.4571 100.842 16.4571C100.247 16.4571 98.8586 14.6057 97.9662 12.3429C96.6772 9.05143 95.7848 8.22857 93.8017 8.22857C92.4135 8.22857 91.0253 7.71429 90.7278 7.2C89.8354 5.76 87.0591 5.96571 84.9768 7.61143Z" fill="black"/>
<path d="M188.397 8.53715C185.521 9.97715 183.439 13.7829 183.439 17.4857C183.439 26.0229 193.751 32.4 201.584 28.6971C204.658 27.2571 206.245 23.76 206.245 18.4114C206.245 12.7543 205.055 10.8 200.295 8.84572C195.536 6.89144 191.768 6.78858 188.397 8.53715ZM197.916 16.1486C198.808 19.5429 196.825 23.8629 194.544 23.4514C192.462 23.04 191.57 16.0457 193.354 13.8857C194.941 11.9314 197.221 13.0629 197.916 16.1486Z" fill="black"/>
<path d="M35.6962 9.56572C33.1181 10.9029 31.6308 15.4286 33.8122 15.4286C34.5063 15.4286 36.5886 14.9143 38.3734 14.1943C40.7532 13.2686 41.943 13.2686 42.7363 14.0914C43.5295 14.9143 42.3397 15.7372 38.4726 17.28C31.7299 19.8514 29.5485 23.1429 32.0274 27.1543C33.4156 29.3143 34.5063 29.8286 38.0759 29.8286C40.4557 29.8286 44.3228 30.1372 46.8017 30.4457C52.3544 31.2686 52.751 30.4457 51.8586 19.9543C51.2637 12.6514 51.0654 12.0343 48.1899 10.1829C44.6202 7.92001 39.2658 7.7143 35.6962 9.56572ZM42.6371 22.6286C42.6371 24.1714 41.943 24.6857 40.1582 24.6857C37.7785 24.6857 36.7869 22.8343 38.3734 21.2914C39.8608 19.7486 42.6371 20.5714 42.6371 22.6286Z" fill="black"/>
<path d="M208.922 8.84572C208.525 9.25715 208.228 13.1657 208.228 17.4857C208.228 26.9486 208.922 27.8743 217.945 30.24C225.878 32.2971 229.051 32.2971 231.827 30.24C233.711 28.9029 234.008 27.7714 234.008 20.7771C234.008 10.2857 232.719 8.22858 226.076 8.22858C222.01 8.22858 220.92 8.64 219.135 11.0057C217.548 13.1657 217.251 14.6057 217.648 17.8971C218.342 23.1429 217.053 25.7143 214.673 23.6571C213.483 22.6286 213.186 20.7771 213.384 15.5314C213.681 9.36 213.483 8.74286 211.698 8.43429C210.508 8.22858 209.319 8.43429 208.922 8.84572Z" fill="black"/>
</svg>
