<svg width="16" height="16" viewBox="0 0 16 16" fill="none" xmlns="http://www.w3.org/2000/svg">
<path d="M8.84574 2.44573C9.04577 2.24576 9.31703 2.13342 9.59987 2.13342C9.88271 2.13342 10.154 2.24576 10.354 2.44573L15.154 7.24573C15.354 7.44576 15.4663 7.71702 15.4663 7.99986C15.4663 8.2827 15.354 8.55397 15.154 8.754L10.354 13.554C10.1528 13.7483 9.88339 13.8558 9.60371 13.8534C9.32403 13.851 9.0565 13.7388 8.85873 13.541C8.66096 13.3432 8.54878 13.0757 8.54635 12.796C8.54392 12.5163 8.65144 12.2469 8.84574 12.0457L11.7332 9.06653H1.59987C1.31697 9.06653 1.04566 8.95415 0.845623 8.75411C0.645584 8.55407 0.533203 8.28276 0.533203 7.99986C0.533203 7.71696 0.645584 7.44565 0.845623 7.24561C1.04566 7.04558 1.31697 6.9332 1.59987 6.9332H11.7332L8.84574 3.954C8.64577 3.75397 8.53343 3.4827 8.53343 3.19986C8.53343 2.91702 8.64577 2.64576 8.84574 2.44573Z" fill="black"/>
</svg>
