<svg width="16" height="16" viewBox="0 0 16 16" fill="none" xmlns="http://www.w3.org/2000/svg">
<path d="M13.8669 4.26663C13.8669 3.98374 13.7545 3.71243 13.5545 3.51239C13.3544 3.31235 13.0831 3.19997 12.8002 3.19997C12.8002 2.91707 12.6878 2.64576 12.4878 2.44572C12.2878 2.24568 12.0165 2.1333 11.7336 2.1333C11.4507 2.1333 11.1794 2.24568 10.9793 2.44572C10.7793 2.64576 10.6669 2.91707 10.6669 3.19997V5.40509C10.0543 4.76665 9.23395 4.36793 8.35348 4.28078C7.47301 4.19362 6.59036 4.42375 5.86453 4.92971C5.13871 5.43567 4.61742 6.18419 4.39458 7.04044C4.17173 7.89669 4.26199 8.80437 4.64908 9.59997H2.13356C1.85066 9.59997 1.57935 9.71235 1.37931 9.91239C1.17928 10.1124 1.06689 10.3837 1.06689 10.6666C1.06689 10.9495 1.17928 11.2208 1.37931 11.4209C1.57935 11.6209 1.85066 11.7333 2.13356 11.7333C2.13356 12.0162 2.24594 12.2875 2.44598 12.4875C2.64602 12.6876 2.91733 12.8 3.20023 12.8C3.20023 13.0829 3.31261 13.3542 3.51265 13.5542C3.71269 13.7543 3.984 13.8666 4.26689 13.8666C4.54979 13.8666 4.8211 13.7543 5.02114 13.5542C5.22118 13.3542 5.33356 13.0829 5.33356 12.8V10.5947C5.94606 11.2333 6.76647 11.6321 7.64699 11.7194C8.52751 11.8066 9.41023 11.5765 10.1361 11.0705C10.862 10.5645 11.3833 9.81594 11.6061 8.95963C11.8289 8.10331 11.7386 7.19557 11.3514 6.39997H13.8669C14.1498 6.39997 14.4211 6.28759 14.6211 6.08755C14.8212 5.88751 14.9336 5.6162 14.9336 5.3333C14.9336 5.0504 14.8212 4.77909 14.6211 4.57905C14.4211 4.37902 14.1498 4.26663 13.8669 4.26663ZM8.00023 10.6586C7.40899 10.6606 6.83407 10.4649 6.36696 10.1024C5.89984 9.73997 5.56737 9.23171 5.42245 8.65851C5.27752 8.08531 5.32848 7.48011 5.56721 6.93921C5.80593 6.39831 6.21871 5.9528 6.73985 5.67357C6.96202 5.72287 7.16462 5.83681 7.32215 6.00103C7.62699 6.4309 7.77247 6.95357 7.73356 7.47911L7.73463 8.49895C7.68656 9.16123 7.87938 9.81857 8.27756 10.3499C8.36001 10.443 8.45272 10.5265 8.55394 10.5988C8.37198 10.6381 8.18639 10.6582 8.00023 10.6586ZM9.2605 10.3264C9.03838 10.277 8.83582 10.1631 8.67831 9.9989C8.37347 9.56904 8.22798 9.04637 8.26689 8.52082L8.26583 7.50098C8.31389 6.83871 8.12108 6.18137 7.72289 5.64999C7.64036 5.55691 7.54762 5.47339 7.44642 5.40103C8.07107 5.26529 8.72375 5.35991 9.28413 5.66748C9.84452 5.97504 10.2748 6.47481 10.4958 7.07465C10.7167 7.6745 10.7134 8.33399 10.4863 8.93156C10.2593 9.52913 9.82397 10.0245 9.2605 10.3264Z" fill="black"/>
</svg>
