<svg width="24" height="24" viewBox="0 0 24 24" fill="none" xmlns="http://www.w3.org/2000/svg">
<path d="M20.1819 4.90908H13.6364V3.27272C13.6364 2.83873 13.464 2.42251 13.1572 2.11563C12.8503 1.80875 12.4341 1.63635 12.0001 1.63635C11.5661 1.63635 11.1499 1.80875 10.843 2.11563C10.5361 2.42251 10.3637 2.83873 10.3637 3.27272V4.90908H3.81825C3.38426 4.90908 2.96804 5.08148 2.66116 5.38836C2.35429 5.69524 2.18188 6.11145 2.18188 6.54544C2.18188 6.97943 2.35429 7.39565 2.66116 7.70253C2.96804 8.00941 3.38426 8.18181 3.81825 8.18181H4.69752C5.48952 10.5464 6.71803 12.7414 8.31934 14.6531C8.79498 15.2509 9.25752 15.7876 9.70698 16.2982C8.51945 17.5041 7.1124 18.4721 5.56152 19.1498C5.14781 19.2676 4.79711 19.5435 4.5853 19.9179C4.37349 20.2922 4.31761 20.735 4.42974 21.1502C4.54187 21.5655 4.81301 21.9199 5.18447 22.1368C5.55594 22.3537 5.99786 22.4156 6.41461 22.3091C8.53017 21.5373 10.4398 20.2891 11.9957 18.6611C13.5544 20.2908 15.468 21.5392 17.5877 22.3091C17.7216 22.3441 17.8595 22.3617 17.9979 22.3614C18.354 22.3601 18.6999 22.242 18.9824 22.0253C19.265 21.8085 19.4687 21.5051 19.5622 21.1614C19.6752 20.7455 19.6208 20.3019 19.4108 19.9255C19.2008 19.5492 18.8519 19.27 18.4386 19.1476C16.8823 18.4748 15.4709 17.5072 14.2822 16.2982C14.7339 15.7876 15.1921 15.2509 15.6699 14.6531C17.2715 12.7397 18.502 10.5443 19.2982 8.17963H20.1819C20.6159 8.17963 21.0321 8.00722 21.339 7.70035C21.6458 7.39347 21.8182 6.97725 21.8182 6.54326C21.8182 6.10927 21.6458 5.69306 21.339 5.38618C21.0321 5.0793 20.6159 4.90908 20.1819 4.90908ZM13.1084 12.6131C12.7222 13.0996 12.3601 13.5076 11.9957 13.9244C11.6292 13.5076 11.267 13.0996 10.8808 12.6153C9.77767 11.2698 8.86915 9.77586 8.18188 8.17744H15.8117C15.1206 9.77464 14.2122 11.2676 13.1084 12.6131Z" fill="black"/>
</svg>
