<svg width="17" height="17" viewBox="0 0 17 17" fill="none" xmlns="http://www.w3.org/2000/svg">
<g clip-path="url(#clip0_41_42348)">
<path d="M6.31049 0.52839C6.73675 0.644642 6.98805 1.08444 6.87181 1.51069L6.62159 2.42815C6.35527 3.40463 6.62447 4.44914 7.32956 5.17526C8.10942 5.97839 9.30363 6.2177 10.3327 5.77708L10.6388 5.64605C11.2555 5.38198 11.7375 4.87734 11.9731 4.24915C12.1452 3.79022 12.2333 3.30409 12.2333 2.81394V2.63354C12.2333 2.1917 12.5915 1.83354 13.0333 1.83354C13.4751 1.83354 13.8333 2.1917 13.8333 2.63354V2.81394C13.8333 3.49593 13.7107 4.17235 13.4712 4.81091C13.1159 5.75864 12.4206 6.53602 11.5265 6.9956L11.4483 7.04557C10.8196 7.4478 10.4671 8.16668 10.5342 8.91006L10.6713 10.4289C10.6927 10.5233 10.7081 10.6199 10.7171 10.7182L11.1634 15.6276C11.2034 16.0676 10.8791 16.4567 10.4391 16.4967C9.99908 16.5367 9.60995 16.2124 9.56994 15.7724L9.12363 10.8631C9.11784 10.7993 9.10209 10.7382 9.07784 10.6813C9.04429 10.6027 8.98329 10.5403 8.9201 10.4828C8.85679 10.4251 8.78883 10.3701 8.70726 10.3441L8.68942 10.3387C8.44635 10.2692 8.18578 10.359 8.03709 10.5635L7.00005 11.9894C6.7764 12.2969 6.66958 12.6741 6.69874 13.0532L6.89762 15.6387C6.9315 16.0792 6.60186 16.4637 6.16133 16.4977C5.7208 16.5316 5.33621 16.2019 5.30233 15.7613L5.10346 13.1759C5.04513 12.4177 5.25876 11.6634 5.70607 11.0483L6.74312 9.62241C6.87849 9.43628 6.98731 9.22725 7.01021 8.99824L7.09786 8.1218C7.16177 7.4826 6.81674 6.8864 6.34546 6.44987C6.28971 6.39821 6.23508 6.34489 6.1817 6.2899C5.08245 5.15787 4.66279 3.52947 5.07796 2.00717L5.32818 1.08971C5.44444 0.663447 5.88422 0.412137 6.31049 0.52839ZM9.3 4.9002C10.1836 4.9002 10.9 4.18386 10.9 3.3002C10.9 2.41654 10.1836 1.7002 9.3 1.7002C8.41634 1.7002 7.7 2.41654 7.7 3.3002C7.7 4.18386 8.41634 4.9002 9.3 4.9002ZM3.02038 5.61309C2.98127 5.43058 2.81999 5.30019 2.63333 5.30019C2.44668 5.30019 2.2854 5.43058 2.24628 5.61309L2.13559 6.12964C2.04902 6.53363 1.73344 6.84922 1.32944 6.93579L0.812897 7.04648C0.630388 7.08559 0.5 7.24688 0.5 7.43353C0.5 7.62018 0.630388 7.78147 0.812897 7.82058L1.32944 7.93126C1.73344 8.01784 2.04902 8.33342 2.13559 8.73742L2.24628 9.25396C2.2854 9.43647 2.44668 9.56686 2.63333 9.56686C2.81999 9.56686 2.98127 9.43647 3.02038 9.25396L3.13107 8.73742C3.21764 8.33342 3.53323 8.01784 3.93723 7.93126L4.45377 7.82058C4.63628 7.78147 4.76667 7.62018 4.76667 7.43353C4.76667 7.24688 4.63628 7.08559 4.45377 7.04648L3.93723 6.93579C3.53323 6.84922 3.21764 6.53363 3.13107 6.12964L3.02038 5.61309ZM14.3667 7.96686C14.5533 7.96686 14.7146 8.09725 14.7538 8.27976L14.8644 8.79631C14.951 9.2003 15.2666 9.51588 15.6706 9.60245L16.1871 9.71314C16.3697 9.75226 16.5 9.91355 16.5 10.1002C16.5 10.2868 16.3697 10.4481 16.1871 10.4872L15.6706 10.5979C15.2666 10.6845 14.951 11.0001 14.8644 11.4041L14.7538 11.9206C14.7146 12.1031 14.5533 12.2335 14.3667 12.2335C14.18 12.2335 14.0187 12.1031 13.9796 11.9206L13.869 11.4041C13.7823 11.0001 13.4667 10.6845 13.0628 10.5979L12.5462 10.4872C12.3637 10.4481 12.2333 10.2868 12.2333 10.1002C12.2333 9.91355 12.3637 9.75226 12.5462 9.71314L13.0628 9.60245C13.4667 9.51588 13.7823 9.2003 13.869 8.79631L13.9796 8.27976C14.0187 8.09725 14.18 7.96686 14.3667 7.96686Z" fill="black"/>
</g>
<defs>
<clipPath id="clip0_41_42348">
<rect width="16" height="16" fill="white" transform="translate(0.5 0.5)"/>
</clipPath>
</defs>
</svg>
