<svg width="16" height="16" viewBox="0 0 16 16" fill="none" xmlns="http://www.w3.org/2000/svg">
<path d="M5.91187 3.89012L3.31347 3.19999L3.78601 1.46132C3.82415 1.32445 3.91483 1.20819 4.0383 1.13786C4.16177 1.06754 4.30802 1.04885 4.44521 1.08586L6.00254 1.50399C6.07041 1.52195 6.13406 1.55312 6.18984 1.59574C6.24563 1.63835 6.29246 1.69155 6.32764 1.7523C6.36282 1.81305 6.38566 1.88014 6.39485 1.94974C6.40405 2.01933 6.39941 2.09006 6.38121 2.15786L5.91187 3.89012ZM1.09054 11.7365C1.06094 11.6409 1.05909 11.5388 1.08521 11.4421L3.02547 4.26772L5.62281 4.95786L3.68254 12.1323C3.65655 12.2292 3.60367 12.3169 3.53001 12.3851L1.97587 13.8219C1.9558 13.8401 1.93146 13.853 1.90508 13.8595C1.87871 13.8659 1.85115 13.8656 1.82493 13.8585C1.79871 13.8515 1.77467 13.8381 1.75501 13.8194C1.73535 13.8006 1.7207 13.7773 1.71241 13.7515L1.09054 11.7365ZM10.6671 5.33332C8.26707 5.33332 7.46707 4.53332 7.46707 2.13332C9.86708 2.13332 10.6671 2.93332 10.6671 5.33332ZM9.17374 13.8496C7.71241 14.0736 5.83934 12.0299 5.41907 9.79626L6.36734 6.29332C6.79294 5.91999 7.33054 5.72479 7.88094 5.72479C8.47753 5.72234 9.06027 5.90453 9.54921 6.24639C9.72134 6.36191 9.92437 6.4227 10.1317 6.4208C10.339 6.4189 10.5408 6.35438 10.7108 6.23572C11.1613 5.902 11.7075 5.72278 12.2681 5.72479C13.0895 5.72479 14.0207 6.24639 14.4548 7.00586C16.0932 9.88159 13.1812 14.1621 11.1012 13.8507C11.0059 13.8321 10.9141 13.7986 10.8292 13.7515C10.6143 13.6413 10.3763 13.5838 10.1348 13.5838C9.89332 13.5838 9.6553 13.6413 9.44041 13.7515C9.35711 13.7977 9.26716 13.8308 9.17374 13.8496Z" fill="black"/>
</svg>
