<svg width="17" height="17" viewBox="0 0 17 17" fill="none" xmlns="http://www.w3.org/2000/svg">
<path d="M11.861 7.02909C11.8136 6.99101 11.7545 6.97025 11.6936 6.97025C11.6327 6.97025 11.5736 6.99101 11.5261 7.02909L9.13144 8.95762C9.10071 8.9824 9.07593 9.01376 9.05895 9.04939C9.04195 9.08503 9.0332 9.12402 9.0333 9.16349V14.0968C9.0333 14.1684 9.06174 14.2371 9.11234 14.2877C9.16296 14.3382 9.2316 14.3667 9.30317 14.3667H10.8968C10.9683 14.3667 11.037 14.3382 11.0876 14.2877C11.1382 14.2371 11.1666 14.1684 11.1666 14.0968V12.2334H12.2333V14.0968C12.2333 14.1684 12.2618 14.2371 12.3123 14.2877C12.363 14.3382 12.4316 14.3667 12.5032 14.3667H14.0968C14.1683 14.3667 14.237 14.3382 14.2876 14.2877C14.3382 14.2371 14.3666 14.1684 14.3666 14.0968V9.16136C14.3674 9.12049 14.3587 9.08 14.3414 9.04301C14.324 9.00602 14.2983 8.97353 14.2664 8.94802L11.861 7.02909ZM11.1666 11.1667H10.1V10.1H11.1666V11.1667ZM13.3 11.1667H12.2333V10.1H13.3V11.1667ZM6.59064 1.36936C6.56611 1.3324 6.53283 1.30207 6.49375 1.2811C6.45467 1.26012 6.411 1.24915 6.36664 1.24915C6.32228 1.24915 6.27861 1.26012 6.23953 1.2811C6.20044 1.30207 6.16716 1.3324 6.14264 1.36936L2.6781 5.76509C2.64875 5.80936 2.63315 5.86132 2.6333 5.91442V14.0968C2.63316 14.1321 2.63998 14.1671 2.65336 14.1998C2.66673 14.2324 2.68642 14.2622 2.71128 14.2872C2.73614 14.3123 2.7657 14.3322 2.79825 14.3458C2.83082 14.3594 2.86574 14.3666 2.90104 14.3667H5.5677C5.63844 14.3658 5.70599 14.3371 5.75571 14.2868C5.80543 14.2366 5.83331 14.1686 5.8333 14.0979V12.2334H6.89997V14.0979C6.89997 14.1691 6.92829 14.2375 6.9787 14.288C7.02911 14.3384 7.09748 14.3667 7.16877 14.3667H7.96664V7.96669C7.96659 7.88657 7.9846 7.80748 8.01931 7.73528C8.05403 7.66307 8.10457 7.59962 8.16717 7.54962L10.1 5.83336C10.1 5.78002 6.59064 1.36936 6.59064 1.36936ZM4.76664 10.1H3.69997V9.03336H4.76664V10.1ZM4.76664 6.90002H3.69997V5.83336H4.76664V6.90002ZM6.89997 10.1H5.8333V9.03336H6.89997V10.1ZM6.89997 6.90002H5.8333V5.83336H6.89997V6.90002Z" fill="black"/>
</svg>
