<svg width="17" height="17" viewBox="0 0 17 17" fill="none" xmlns="http://www.w3.org/2000/svg">
<path d="M13.8333 7.96665H13.3C13.2824 7.96918 13.2649 7.97274 13.2477 7.97732C13.175 7.28257 12.9511 6.61218 12.5915 6.01326C12.232 5.41435 11.7456 4.90146 11.1667 4.51065V2.09998C11.1667 1.95853 11.1105 1.82288 11.0104 1.72286C10.9104 1.62284 10.7748 1.56665 10.6333 1.56665H6.36666C6.22521 1.56665 6.08956 1.62284 5.98954 1.72286C5.88952 1.82288 5.83333 1.95853 5.83333 2.09998V4.51065C5.17771 4.94933 4.64032 5.54283 4.26869 6.23865C3.89705 6.93446 3.70264 7.71114 3.70264 8.49998C3.70264 9.28882 3.89705 10.0655 4.26869 10.7613C4.64032 11.4571 5.17771 12.0506 5.83333 12.4893V14.9C5.83333 15.0414 5.88952 15.1771 5.98954 15.2771C6.08956 15.3771 6.22521 15.4333 6.36666 15.4333H10.6333C10.7748 15.4333 10.9104 15.3771 11.0104 15.2771C11.1105 15.1771 11.1667 15.0414 11.1667 14.9V12.4893C11.7455 12.0984 12.2318 11.5855 12.5913 10.9866C12.9509 10.3877 13.1749 9.71736 13.2477 9.02265C13.2649 9.02723 13.2824 9.03079 13.3 9.03332H13.8333C13.9748 9.03332 14.1104 8.97713 14.2104 8.87711C14.3105 8.77709 14.3667 8.64143 14.3667 8.49998C14.3667 8.35854 14.3105 8.22288 14.2104 8.12286C14.1104 8.02284 13.9748 7.96665 13.8333 7.96665ZM8.49999 12.2333C7.76161 12.2333 7.03981 12.0144 6.42586 11.6041C5.81192 11.1939 5.33341 10.6108 5.05084 9.92867C4.76828 9.24649 4.69434 8.49584 4.83839 7.77165C4.98245 7.04745 5.33801 6.38223 5.86013 5.86012C6.38224 5.338 7.04746 4.98244 7.77166 4.83839C8.49585 4.69433 9.2465 4.76827 9.92868 5.05083C10.6109 5.3334 11.1939 5.81191 11.6041 6.42586C12.0144 7.0398 12.2333 7.7616 12.2333 8.49998C12.2333 9.49013 11.84 10.4397 11.1399 11.1398C10.4397 11.84 9.49013 12.2333 8.49999 12.2333ZM10.1 7.96665H9.03333V6.36665C9.03333 6.2252 8.97713 6.08955 8.87712 5.98953C8.7771 5.88951 8.64144 5.83332 8.49999 5.83332C8.35854 5.83332 8.22289 5.88951 8.12287 5.98953C8.02285 6.08955 7.96666 6.2252 7.96666 6.36665V8.49998C7.96666 8.64143 8.02285 8.77709 8.12287 8.87711C8.22289 8.97713 8.35854 9.03332 8.49999 9.03332H10.1C10.2414 9.03332 10.3771 8.97713 10.4771 8.87711C10.5771 8.77709 10.6333 8.64143 10.6333 8.49998C10.6333 8.35854 10.5771 8.22288 10.4771 8.12286C10.3771 8.02284 10.2414 7.96665 10.1 7.96665Z" fill="black"/>
</svg>
